<svg class="w-10 h-6" width="140" height="36" viewBox="0 0 140 36" fill="none" xmlns="http://www.w3.org/2000/svg">
<circle cx="18" cy="18" r="18" fill="#12A6E9"/>
<path d="M13.0597 9.09091L17.63 23.4574H17.8055L22.385 9.09091H26.8168L20.2984 28H15.1464L8.61867 9.09091H13.0597Z" fill="white"/>
<path d="M49.0597 9.09091L53.63 23.4574H53.8054L58.3849 9.09091H62.8168L56.2983 28H51.1463L44.6186 9.09091H49.0597ZM65.0188 28V13.8182H68.9521V28H65.0188ZM66.9947 11.9901C66.4099 11.9901 65.9083 11.7962 65.4897 11.4084C65.0773 11.0144 64.8711 10.5436 64.8711 9.99574C64.8711 9.45407 65.0773 8.98935 65.4897 8.60156C65.9083 8.20762 66.4099 8.01065 66.9947 8.01065C67.5794 8.01065 68.078 8.20762 68.4904 8.60156C68.909 8.98935 69.1183 9.45407 69.1183 9.99574C69.1183 10.5436 68.909 11.0144 68.4904 11.4084C68.078 11.7962 67.5794 11.9901 66.9947 11.9901ZM72.0289 28V25.6548L78.9721 17.0589V16.9574H72.269V13.8182H83.7086V16.3757L77.1902 24.7592V24.8608H83.9487V28H72.0289ZM86.9563 28V13.8182H90.8896V28H86.9563ZM88.9322 11.9901C88.3474 11.9901 87.8458 11.7962 87.4272 11.4084C87.0148 11.0144 86.8086 10.5436 86.8086 9.99574C86.8086 9.45407 87.0148 8.98935 87.4272 8.60156C87.8458 8.20762 88.3474 8.01065 88.9322 8.01065C89.5169 8.01065 90.0155 8.20762 90.4279 8.60156C90.8465 8.98935 91.0558 9.45407 91.0558 9.99574C91.0558 10.5436 90.8465 11.0144 90.4279 11.4084C90.0155 11.7962 89.5169 11.9901 88.9322 11.9901ZM101.584 13.8182V16.7727H93.0431V13.8182H101.584ZM94.9821 10.4205H98.9153V23.642C98.9153 24.0052 98.9707 24.2884 99.0815 24.4915C99.1923 24.6884 99.3462 24.8269 99.5431 24.907C99.7463 24.987 99.9802 25.027 100.245 25.027C100.43 25.027 100.614 25.0116 100.799 24.9808C100.983 24.9439 101.125 24.9162 101.224 24.8977L101.842 27.8246C101.645 27.8861 101.368 27.9569 101.011 28.0369C100.654 28.1231 100.22 28.1754 99.7093 28.1939C98.7614 28.2308 97.9305 28.1046 97.2164 27.8153C96.5086 27.526 95.9577 27.0767 95.5637 26.4673C95.1698 25.858 94.9759 25.0885 94.9821 24.1591V10.4205ZM110.401 28.277C108.967 28.277 107.727 27.9723 106.68 27.3629C105.64 26.7474 104.837 25.8918 104.27 24.7962C103.704 23.6944 103.421 22.4171 103.421 20.9645C103.421 19.4995 103.704 18.2192 104.27 17.1236C104.837 16.0218 105.64 15.1662 106.68 14.5568C107.727 13.9413 108.967 13.6335 110.401 13.6335C111.835 13.6335 113.073 13.9413 114.113 14.5568C115.159 15.1662 115.965 16.0218 116.532 17.1236C117.098 18.2192 117.381 19.4995 117.381 20.9645C117.381 22.4171 117.098 23.6944 116.532 24.7962C115.965 25.8918 115.159 26.7474 114.113 27.3629C113.073 27.9723 111.835 28.277 110.401 28.277ZM110.42 25.2301C111.072 25.2301 111.617 25.0455 112.054 24.6761C112.491 24.3007 112.82 23.7898 113.042 23.1435C113.269 22.4972 113.383 21.7616 113.383 20.9368C113.383 20.112 113.269 19.3764 113.042 18.7301C112.82 18.0838 112.491 17.5729 112.054 17.1974C111.617 16.822 111.072 16.6342 110.42 16.6342C109.761 16.6342 109.207 16.822 108.758 17.1974C108.314 17.5729 107.979 18.0838 107.751 18.7301C107.53 19.3764 107.419 20.112 107.419 20.9368C107.419 21.7616 107.53 22.4972 107.751 23.1435C107.979 23.7898 108.314 24.3007 108.758 24.6761C109.207 25.0455 109.761 25.2301 110.42 25.2301ZM119.939 28V13.8182H123.752V16.2926H123.9C124.158 15.4124 124.592 14.7476 125.202 14.2983C125.811 13.8428 126.513 13.6151 127.307 13.6151C127.504 13.6151 127.716 13.6274 127.944 13.652C128.171 13.6766 128.372 13.7105 128.544 13.7536V17.2436C128.359 17.1882 128.104 17.139 127.778 17.0959C127.451 17.0528 127.153 17.0312 126.882 17.0312C126.303 17.0312 125.786 17.1574 125.331 17.4098C124.881 17.656 124.524 18.0007 124.26 18.4439C124.001 18.8871 123.872 19.398 123.872 19.9766V28H119.939Z" fill="black"/>
</svg>
